PathFileType	4	(X/Y/Z)	/Users/niels/Desktop/University/Third Semester/Perception and Action/Exam/Gymnastics Motion Tracking/Code for Gym Tracking/Analyzed Data/Webcam_Backflip/id5_2_baseline_Sports2D/id5_2_baseline_Sports2D_px_person00.trc
DataRate	CameraRate	NumFrames	NumMarkers	Units	OrigDataRate	OrigDataStartFrame	OrigNumFrames
29.81132075471698	29.81132075471698	10	22	m	29.81132075471698	119	159
Frame#	Time	Hip			RHip			RKnee			RAnkle			RBigToe			RSmallToe			RHeel			LHip			LKnee			LAnkle			LBigToe			LSmallToe			LHeel			Neck			Head			Nose			RShoulder			RElbow			RWrist			LShoulder			LElbow			LWrist		
		X1	Y1	Z1	X2	Y2	Z2	X3	Y3	Z3	X4	Y4	Z4	X5	Y5	Z5	X6	Y6	Z6	X7	Y7	Z7	X8	Y8	Z8	X9	Y9	Z9	X10	Y10	Z10	X11	Y11	Z11	X12	Y12	Z12	X13	Y13	Z13	X14	Y14	Z14	X15	Y15	Z15	X16	Y16	Z16	X17	Y17	Z17	X18	Y18	Z18	X19	Y19	Z19	X20	Y20	Z20	X21	Y21	Z21	X22	Y22	Z22
119	3.991772151898734	0.7825204832744015	-0.5676345951810862	0.0	0.7740568410232822	-0.56600000285623	0.0	0.7807548473797886	-0.6747947180632637	0.0	0.7607089898842531	-0.7842337361930637	0.0	0.8048479476488373	-0.7961188975928325	0.0	0.7927441679872825	-0.8024115768556024	0.0	0.7505144494218801	-0.7983854736872604	0.0	0.7902547902249121	-0.564166730955806	0.0	0.819103241301273	-0.6579519923644421	0.0	0.7385870076738734	-0.7240833339096546	0.0	0.7557976224225281	-0.7697089466918539	0.0	0.7523966691184042	-0.7622728639133315	0.0	0.7226216158271057	-0.7285129069245067	0.0	0.7849635441092865	-0.4169630891309259	0.0	0.8202777069338091	-0.3596852207971444	0.0	0.824323536899662	-0.4011063675029938	0.0	0.7700601118515404	-0.43403553876471546	0.0	0.7547480292176411	-0.5063701082252383	0.0	0.7761483253104913	-0.5686151314124964	0.0	0.7854057263505778	-0.43346105303344495	0.0	0.7832031440943459	-0.5028864349880132	0.0	0.8141074242391395	-0.5383328268398527	0.0
120	4.025316455696203	0.7896703915858556	-0.5644244026066585	0.0	0.7794226823558914	-0.5634820810524547	0.0	0.782223512762131	-0.6725672046213707	0.0	0.7614008885916919	-0.7809133117912217	0.0	0.8063783301318166	-0.793557331919344	0.0	0.7942943516084233	-0.800052424607868	0.0	0.7505397864723631	-0.7958779105055339	0.0	0.7994579666839063	-0.56132563632847	0.0	0.8367088990818656	-0.6498554774569418	0.0	0.764844906469531	-0.7218667348884529	0.0	0.7871813895251283	-0.7659781100697352	0.0	0.7834489461511032	-0.7584672642356426	0.0	0.7498657494861153	-0.728477509636511	0.0	0.7922941908360076	-0.4141951104787115	0.0	0.8296374716963687	-0.3572572141771329	0.0	0.8320697441911272	-0.39870934710929035	0.0	0.777381452190174	-0.42982834647407847	0.0	0.759528515106521	-0.50137224648287	0.0	0.7769145798446188	-0.5658308767835991	0.0	0.7923625696949136	-0.43048116760519006	0.0	0.7889388736304734	-0.5006501082309337	0.0	0.8162315893449232	-0.5412449657689753	0.0
121	4.058860759493671	0.7963074659094694	-0.5633334550177095	0.0	0.7847838768521777	-0.5630944225468384	0.0	0.7841746690779238	-0.6719378523266634	0.0	0.7619132082617512	-0.7794040437841586	0.0	0.8071338573891762	-0.7926205672006492	0.0	0.7950780047457975	-0.7992564082708937	0.0	0.7506125075780387	-0.7948602696697806	0.0	0.8077033792547319	-0.5607096046042876	0.0	0.8517134770455195	-0.6438051342834726	0.0	0.7937712055097804	-0.7236165726457728	0.0	0.8214772433156842	-0.7639466839098925	0.0	0.8176028921316322	-0.7567790361907316	0.0	0.780327386756828	-0.7330707535971744	0.0	0.7997342156117553	-0.41336468191292347	0.0	0.8387336396662385	-0.3569091756993819	0.0	0.8398518022673632	-0.3981800579470946	0.0	0.784778785378214	-0.42757228026650046	0.0	0.7651922253405888	-0.49839805389426517	0.0	0.7791642511609791	-0.5645838857814206	0.0	0.7993438329629287	-0.42947814099581394	0.0	0.7947785061446583	-0.5002838128820357	0.0	0.8190369241273903	-0.5455583761128088	0.0
122	4.092405063291139	0.802410135576689	-0.5644496823627848	0.0	0.7901686199739121	-0.564809407522519	0.0	0.7866206411458017	-0.6729939825610358	0.0	0.7622309318933697	-0.7796875491618955	0.0	0.8073851422025209	-0.7933851572139207	0.0	0.7953815840820347	-0.8000350722343081	0.0	0.750754045526706	-0.7952675053618532	0.0	0.8149786324024815	-0.5623879864304548	0.0	0.863988917790342	-0.6406222920816846	0.0	0.8236044651848407	-0.7285670043951082	0.0	0.8561139264060067	-0.7631923480553476	0.0	0.8522382598344006	-0.7567238937061587	0.0	0.812071161907906	-0.7408758295263673	0.0	0.8072090787034896	-0.41447913573232703	0.0	0.8475054953407138	-0.3587167242815037	0.0	0.8476311055669168	-0.3997062479208397	0.0	0.7920469984169398	-0.42749158744700794	0.0	0.7715931612673994	-0.49772882960878073	0.0	0.7829348955976982	-0.5650571356805518	0.0	0.8062863892501433	-0.4304893350468022	0.0	0.8004537677818154	-0.5017542593510618	0.0	0.8223717928743066	-0.5509796555255547	0.0
123	4.125949367088608	0.8081715707060622	-0.5676456905594143	0.0	0.7957045897814591	-0.5684158687393375	0.0	0.7895537683392875	-0.6756942416121328	0.0	0.7624173738159089	-0.7816168269251149	0.0	0.8073939127769212	-0.7957386427174382	0.0	0.7954404898361472	-0.8022231201025515	0.0	0.7509161031349557	-0.796950897970392	0.0	0.8215364656281587	-0.5661618657281043	0.0	0.8738050845285436	-0.6407490017881079	0.0	0.852169807493491	-0.7356366519765901	0.0	0.8887627382589746	-0.7634525940470835	0.0	0.8848567908179509	-0.757860692840009	0.0	0.8426703977923672	-0.7502998997461511	0.0	0.814660963878044	-0.4174410161398785	0.0	0.855921287587292	-0.362533378612236	0.0	0.8553543855230846	-0.4032881973255915	0.0	0.7990627300964168	-0.4296614265515779	0.0	0.7784866445640658	-0.49946186163824297	0.0	0.7881779706807684	-0.567322415695905	0.0	0.8132245388069529	-0.433411054198951	0.0	0.8059218943045876	-0.504888200942591	0.0	0.8261513581140859	-0.5571957131653156	0.0
124	4.159493670886076	0.8139743680422955	-0.5725950827015766	0.0	0.8015759921220077	-0.5735674029691316	0.0	0.792987284605881	-0.6798597375956651	0.0	0.7625600231834847	-0.7849177264062285	0.0	0.807282021871482	-0.799419222747759	0.0	0.7953082075429126	-0.8055424748429518	0.0	0.7510347128774165	-0.7996734540409784	0.0	0.827855059660592	-0.5716160710673321	0.0	0.8816867769050056	-0.6441843991529388	0.0	0.8771845592606092	-0.7438496529623151	0.0	0.9171804687514205	-0.7648970319810072	0.0	0.9131227494403754	-0.7602044933159964	0.0	0.869540950927233	-0.7601067192190889	0.0	0.8220461536195839	-0.42206861259877365	0.0	0.8639449227564948	-0.36802948436479754	0.0	0.8629549587877664	-0.40869954358090504	0.0	0.8058103278800115	-0.43393338159389877	0.0	0.7856325745860585	-0.5034152326793334	0.0	0.7947585301842301	-0.5712727296915081	0.0	0.8203166178165691	-0.43805147421647284	0.0	0.8114223833896439	-0.5094199507298204	0.0	0.8304031409980691	-0.5639564172508176	0.0
125	4.193037974683544	0.8202613985646132	-0.5788349223600289	0.0	0.8079637363770108	-0.579812779526907	0.0	0.7969738653582424	-0.6851553763083728	0.0	0.7627439101108722	-0.7891618793948348	0.0	0.806989723491543	-0.8041071173841557	0.0	0.7948971568296619	-0.8097105799114818	0.0	0.7511096418980568	-0.8031135015469019	0.0	0.8344621669233526	-0.5781929284268482	0.0	0.8882006145547622	-0.6505270082844522	0.0	0.8967880265581742	-0.7526500048590056	0.0	0.9394308261929334	-0.7680221003460476	0.0	0.9351243308985742	-0.7641491072144521	0.0	0.8905314592752811	-0.7697035682324321	0.0	0.8293599703869515	-0.42808375902964596	0.0	0.8715808256729983	-0.3747375508372456	0.0	0.870396940604912	-0.41547725703708066	0.0	0.8124134001879142	-0.4399173777635178	0.0	0.7928742973539792	-0.5090997803670477	0.0	0.8024235101389081	-0.5765665712405863	0.0	0.8277473525445586	-0.4441071916639902	0.0	0.8173298221805854	-0.5150091207291954	0.0	0.8352838180943113	-0.571035348711252	0.0
126	4.226582278481012	0.8273524716519258	-0.5858062101766756	0.0	0.815001960641656	-0.5866103907728639	0.0	0.8015456697012587	-0.6910895723974051	0.0	0.7630315436651379	-0.7937878051786751	0.0	0.8064096747747215	-0.8093862304287964	0.0	0.7941486355461026	-0.8143919764147081	0.0	0.7512006296370992	-0.806870889155185	0.0	0.8416960405183422	-0.5852766523657833	0.0	0.8937575259813041	-0.6590361576514673	0.0	0.9101558285581309	-0.7618326738033762	0.0	0.9545288969422902	-0.7732167346525199	0.0	0.9499493406230474	-0.7700257162044253	0.0	0.9047048079651068	-0.7789937153554882	0.0	0.8366478201750828	-0.43506401096492003	0.0	0.8789101802044708	-0.3821189888512521	0.0	0.8777036923436345	-0.42300596152205167	0.0	0.819097336800468	-0.44703810681719347	0.0	0.8001704213142121	-0.5158261070060912	0.0	0.810804067005021	-0.5826991200268568	0.0	0.8355907923898507	-0.45112896845863903	0.0	0.8239586926944752	-0.5212374318101135	0.0	0.8410461071606018	-0.5781413097362257	0.0
127	4.260126582278481	0.8353302091350531	-0.5928797397484157	0.0	0.8227312808020815	-0.5933624059941278	0.0	0.8066238571803807	-0.6970715208736452	0.0	0.7634531384192128	-0.7981510250643277	0.0	0.805519203698269	-0.8146788222548305	0.0	0.7931268130927086	-0.819085922287301	0.0	0.7513570481812153	-0.8104628283510389	0.0	0.8495853147500019	-0.5922646485320872	0.0	0.8985453473794973	-0.6686900933808368	0.0	0.9177754853738476	-0.7711620691620825	0.0	0.9629008754038619	-0.780305301913348	0.0	0.9580899979625996	-0.7776359976010555	0.0	0.9126736290406999	-0.7879420203496758	0.0	0.8439675549767625	-0.4424116205462211	0.0	0.8860271493765756	-0.38961562762368035	0.0	0.8849097066401288	-0.4306116524929076	0.0	0.826077976483543	-0.454602760225538	0.0	0.8075722403884346	-0.5228741895473695	0.0	0.8194908933041091	-0.589095995209206	0.0	0.8437512520389067	-0.45853439455067657	0.0	0.8314596039088167	-0.5276151496735461	0.0	0.8478965567973541	-0.5849091588645188	0.0
128	4.293670886075949	0.8440274484589746	-0.5994032337073849	0.0	0.8310557336315759	-0.5994645722139285	0.0	0.8120359357814368	-0.702488425807017	0.0	0.7640207368987975	-0.8015812156581925	0.0	0.8044178136235932	-0.8193286243409521	0.0	0.7919982225601213	-0.8231787579887254	0.0	0.7515959393634901	-0.8133426473651056	0.0	0.857917284010778	-0.5985937852427277	0.0	0.9026124096384651	-0.6783169168609062	0.0	0.9210777493597719	-0.780109394976647	0.0	0.9661186452639264	-0.7884276079112768	0.0	0.9611532687477667	-0.7861041969040176	0.0	0.9161001670079741	-0.7962526855999773	0.0	0.8513439118036094	-0.4494028367742153	0.0	0.8929600358107038	-0.39666434957892455	0.0	0.8920162653035779	-0.43758834597366364	0.0	0.8334745253495817	-0.4618536459116925	0.0	0.8151559179368197	-0.5295936438645991	0.0	0.8281290985840946	-0.5951494617899538	0.0	0.8520290914496518	-0.4656744274872767	0.0	0.8398013816213512	-0.5336429520401589	0.0	0.8558204166280398	-0.5909608127808194	0.0
